<svg xmlns="http://www.w3.org/2000/svg" viewBox="0 0 48 48" width="48px" height="48px">
  <path fill="#5382A1" d="M24,4C12.96,4,4,12.96,4,24s8.96,20,20,20s20-8.96,20-20S35.04,4,24,4z"/>
  <path fill="#FFFFFF" d="M29.453,30.824c-0.878,0.678-2.113,1.158-3.767,1.158c-1.604,0-2.892-0.464-3.789-1.172l0.633-0.759 c0.676,0.569,1.689,0.982,3.154,0.982c1.299,0,2.305-0.387,2.981-0.918l0.789,0.709L29.453,30.824z M28.378,27.881l-0.777,0.815 c-0.621-0.572-1.548-0.964-2.683-0.964c-1.328,0-2.266,0.582-2.266,1.387c0,0.801,0.888,1.07,2.367,1.383 c1.451,0.309,2.278,0.741,2.278,1.681c0,0.98-1.021,1.699-2.668,1.699c-1.312,0-2.355-0.424-3.024-0.993l0.717-0.73 c0.585,0.517,1.528,0.892,2.435,0.892c1.324,0,2.314-0.657,2.314-1.505c0-0.89-0.739-1.221-2.344-1.58 c-1.394-0.309-2.223-0.808-2.223-1.659c0-0.963,0.896-1.616,2.517-1.616c1.099,0,2.021,0.377,2.631,0.855L28.378,27.881z"/>
  <path fill="#FFFFFF" d="M24,42C12.954,42,4,33.046,4,22S12.954,2,24,2s20,8.954,20,20S35.046,42,24,42z M24,4C13.048,4,4,13.048,4,24 s9.048,20,20,20s20-9.048,20-20S34.952,4,24,4z"/>
</svg>