<?xml version="1.0" encoding="UTF-8"?>
<svg version="1.1" xmlns="http://www.w3.org/2000/svg" width="354" height="354">
<path d="M0 0 C1.79930327 -0.00436092 3.59860469 -0.00954858 5.39790344 -0.01548767 C10.23295183 -0.02874256 15.0679214 -0.02947146 19.90298438 -0.02692437 C23.96528161 -0.02584513 28.0275635 -0.03076228 32.0898574 -0.03552979 C41.68882314 -0.04657889 51.28774974 -0.04708881 60.88671875 -0.04101562 C70.72907272 -0.03498335 80.57128347 -0.04727858 90.41361302 -0.06858569 C98.91784777 -0.08630667 107.42203737 -0.09218653 115.92628986 -0.08894795 C120.98159204 -0.08715115 126.0367921 -0.08960814 131.09207726 -0.10366249 C201.32281388 -0.28212063 201.32281388 -0.28212063 227.59106445 25.3918457 C248.54733149 47.32904439 251.66675931 74.0086924 251.61962891 102.9296875 C251.62398982 104.72899077 251.62917749 106.52829219 251.63511658 108.32759094 C251.64837147 113.16263933 251.64910036 117.9976089 251.64655328 122.83267188 C251.64547403 126.89496911 251.65039118 130.957251 251.6551587 135.0195449 C251.6662078 144.61851064 251.66671771 154.21743724 251.66064453 163.81640625 C251.65461225 173.65876022 251.66690748 183.50097097 251.6882146 193.34330052 C251.70593558 201.84753527 251.71181544 210.35172487 251.70857686 218.85597736 C251.70678006 223.91127954 251.70923704 228.9664796 251.7232914 234.02176476 C251.9016103 304.14346642 251.9016103 304.14346642 225.7824707 330.8996582 C203.99260616 351.67604068 178.15451053 354.41838126 149.37109375 354.43579102 C147.5726766 354.44042824 145.77426041 354.4454541 143.97584534 354.45083618 C139.11567077 354.46387893 134.25550996 354.47038968 129.39532065 354.47484684 C126.34758369 354.477792 123.29985036 354.48189952 120.25211525 354.48635101 C110.683975 354.50000731 101.11584322 354.50968192 91.54769391 354.5135529 C80.56388157 354.51802297 69.58019433 354.53552984 58.59641999 354.5645535 C50.06683535 354.58629661 41.53728557 354.59626394 33.00767356 354.59759402 C27.9321518 354.59863347 22.8567479 354.60435458 17.78125572 354.62241364 C-52.60524019 354.85844417 -52.60524019 354.85844417 -78.90112305 329.1574707 C-99.85739009 307.22027202 -102.97681791 280.54062401 -102.9296875 251.61962891 C-102.93404842 249.82032564 -102.93923608 248.02102422 -102.94517517 246.22172546 C-102.95843006 241.38667708 -102.95915896 236.5517075 -102.95661187 231.71664453 C-102.95553263 227.6543473 -102.96044978 223.5920654 -102.96521729 219.52977151 C-102.97626639 209.93080576 -102.97677631 200.33187916 -102.97070312 190.73291016 C-102.96467085 180.89055619 -102.97696608 171.04834544 -102.99827319 161.20601588 C-103.01599417 152.70178114 -103.02187403 144.19759154 -103.01863545 135.69333905 C-103.01683865 130.63803686 -103.01929564 125.5828368 -103.03334999 120.52755165 C-103.21180813 50.29681503 -103.21180813 50.29681503 -77.5378418 24.02856445 C-55.60064311 3.07229741 -28.9209951 -0.04713041 0 0 Z " fill="#2F83DB" transform="translate(102.655029296875,-0.274658203125)"/>
<path d="M0 0 C4.30154211 2.86769474 7.85273224 5.773558 9 11 C9.90589013 17.60005668 7.59233208 22.59269385 4 28 C0.8935672 30.7181287 -0.77773112 31.89371575 -4.875 32.25 C-5.57625 32.1675 -6.2775 32.085 -7 32 C-6.58470524 28.53921033 -6.14911743 25.40349423 -4.9375 22.125 C-3.6964433 17.98814434 -3.2608942 14.27737828 -4 10 C-5.75 6.75 -5.75 6.75 -9 5 C-14.44378298 3.8408675 -19.18914966 4.89060657 -23.96484375 7.625 C-34.97549513 15.06405813 -41.76416301 25.30422212 -45.33984375 38.10546875 C-46.19496525 43.15017963 -46.4320458 48.07683125 -46.5 53.1875 C-46.51861084 54.10192871 -46.53722168 55.01635742 -46.55639648 55.95849609 C-46.48564266 63.58204854 -44.89171135 70.48665396 -39.96484375 76.47265625 C-39.29582031 76.99730469 -38.62679687 77.52195312 -37.9375 78.0625 C-37.26589844 78.61035156 -36.59429687 79.15820312 -35.90234375 79.72265625 C-31.58326139 82.62273825 -27.00623052 82.56137454 -22 82 C-11.28268998 78.93564321 -4.47775035 72.61291483 1 63 C2.59628466 59.66575691 4.04917455 56.27461164 5.5 52.875 C9.74726833 42.98594661 14.56624756 34.21011063 25 30 C29.7290943 29.22406916 32.88807435 29.30504647 37 31.875 C39 34 39 34 40 36 C40.845625 35.195625 41.69125 34.39125 42.5625 33.5625 C45.87124901 30.78818076 48.65099415 30.16726946 53 30 C53.66 30.33 54.32 30.66 55 31 C55.2870396 36.71057727 54.28279598 41.30635233 52.625 46.75 C47.69206334 60.8944887 47.69206334 60.8944887 49 75 C51.68329192 75 53.42850587 74.50407927 55.45703125 72.71484375 C63.3005247 63.29851256 66.45978339 50.41570378 67.88745117 38.49633789 C68.32148168 35.28420566 68.61242408 33.39386519 70.92578125 31.04296875 C73.53347799 29.73175401 75.11776476 29.55657919 78 30 C79.640625 31.01171875 79.640625 31.01171875 81 33 C81.21714241 35.81127043 81.28284276 38.3883345 81.1875 41.1875 C81.17396484 41.93708984 81.16042969 42.68667969 81.14648438 43.45898438 C81.11118539 45.30629767 81.05737917 47.15324066 81 49 C81.40089844 48.3709375 81.80179688 47.741875 82.21484375 47.09375 C86.60196936 40.48819126 91.73332387 33.63333806 99 30 C103.13662801 29.53170249 105.32813291 29.59973875 108.9375 31.75 C112.65328023 37.60516884 111.61987103 43.86894692 110.3125 50.47265625 C109.77192654 52.81947276 109.2237744 55.16455676 108.66796875 57.5078125 C107.67620443 62.69282598 107.7401407 67.74506755 108 73 C112.23360449 72.24432436 113.85868984 70.5360127 116.484375 67.25390625 C121.70326234 59.49282895 123.69107203 51.01374826 124.83666992 41.87548828 C125.49646328 37.15606414 126.64158911 34.39708741 130 31 C132.98212913 29.50893543 135.71609658 29.88058533 139 30 C140 31 140 31 140.08178711 33.67700195 C140.0638208 34.85222412 140.04585449 36.02744629 140.02734375 37.23828125 C140.01509766 38.53443359 140.00285156 39.83058594 139.99023438 41.16601562 C139.96572056 43.22153555 139.93808969 45.27689035 139.90405273 47.33227539 C139.76762784 56.12255048 140.19125535 64.38436999 142 73 C149.56337701 70.24249458 152.76967525 63.44183368 156.5625 56.625 C158.3655699 53.26567406 158.3655699 53.26567406 157.21875 50.93359375 C155.94652087 48.83296071 155.94652087 48.83296071 153.9375 46.4375 C150.86830261 42.57625167 150.81590457 39.42504926 150.75 34.625 C150.71132813 32.94277344 150.71132813 32.94277344 150.671875 31.2265625 C151.11231448 26.89557428 152.76502411 24.37747311 155.625 21.1875 C159.24321898 19.37839051 163.05174539 19.11720364 167 20 C169.25390625 21.61328125 169.25390625 21.61328125 171 24 C172.31892089 32.24585187 170.98909407 40.27817366 168 48 C175.67722756 46.46455449 179.5453399 43.00420385 184.66113281 37.37988281 C188.26687655 33.46695604 191.74261804 30.6008191 197.16015625 29.6015625 C201.59982045 29.65626062 204.58016955 30.09832568 208 33 C208.8125 35.1875 208.8125 35.1875 209 37 C209.66 37 210.32 37 211 37 C211.3403125 36.1028125 211.3403125 36.1028125 211.6875 35.1875 C213.39310766 32.34482057 215.00968056 31.39084625 218 30 C220.6875 29.6875 220.6875 29.6875 223 30 C223.66 30.66 224.32 31.32 225 32 C224.49306389 38.8798472 222.46909478 45.5848571 220.81640625 52.26171875 C219.17674164 58.98531385 217.84219304 65.4800917 217.9375 72.4375 C217.95103516 73.73494141 217.95103516 73.73494141 217.96484375 75.05859375 C217.97644531 75.69925781 217.98804688 76.33992188 218 77 C223.24809907 74.90517054 225.06337747 72.93109274 227.375 67.8125 C228.12910156 66.18248047 228.12910156 66.18248047 228.8984375 64.51953125 C229.44371094 63.27236328 229.44371094 63.27236328 230 62 C230.99 62 231.98 62 233 62 C233.28948647 67.59673839 233.23291136 71.2027767 230 76 C225.51684944 80.52646603 221.53393108 83.75867323 215.0625 84.375 C210.91056781 84.25923981 208.89562197 83.06108609 206 80 C204.1875 77.25 204.1875 77.25 203 75 C202.2575 76.11375 202.2575 76.11375 201.5 77.25 C197.50351959 81.64612845 192.8668956 84.14926582 186.875 84.5625 C182.04505726 83.86137928 180.2774395 82.58231759 177 79 C172.75828658 72.21325853 173.10841431 64.10566162 174.45703125 56.3828125 C174.90517831 54.5708798 175.44127264 52.78094346 176 51 C175.484375 51.309375 174.96875 51.61875 174.4375 51.9375 C172 53 172 53 168.58203125 53.171875 C164.81171693 53.63755525 164.81171693 53.63755525 162.953125 56.73828125 C162.39109375 57.91777344 161.8290625 59.09726563 161.25 60.3125 C156.27479304 70.02504544 149.4747235 78.32040055 140 84 C137.375 84.5 137.375 84.5 135 84 C128.65615986 78.64161075 126.71231369 70.01352901 126 62 C125.34644531 63.17755859 125.34644531 63.17755859 124.6796875 64.37890625 C115.16233908 81.16816807 115.16233908 81.16816807 107 84 C102.88048755 84.50590504 100.79761926 84.46084668 97.1875 82.375 C93.19127767 78.03624433 92.61623328 73.56644714 92.734375 67.7578125 C93.1972426 62.95215767 94.25992098 58.27011104 95.265625 53.5546875 C96.06179515 49.70088516 96.60088506 45.91132644 97 42 C85.68935684 47.14120144 80.41342412 62.04454317 76.25927734 72.94335938 C75.0677896 76.26421992 73.99153316 79.61443613 73 83 C69.75 83.75 69.75 83.75 66 84 C62.77482104 81.87817174 62.11869978 80.51436571 61.25 76.75 C61.1675 75.8425 61.085 74.935 61 74 C60.62488281 74.47050781 60.24976563 74.94101563 59.86328125 75.42578125 C53.19642369 83.53684473 53.19642369 83.53684473 48.0859375 84.27734375 C43.60878684 84.48694818 40.50869413 84.00745211 37 81 C35.1875 77.8125 35.1875 77.8125 34 75 C33.29875 75.7425 32.5975 76.485 31.875 77.25 C27.40451532 81.52611578 24.24307303 84.22869196 17.9375 84.5 C14.81042268 84.33591049 13.00776096 84.00354305 10.125 82.6875 C6.89065421 78.59700386 5.5254037 73.94264887 4 69 C3.64808594 69.56847656 3.29617187 70.13695312 2.93359375 70.72265625 C-3.76112097 81.19298031 -11.19585505 87.83238912 -23 92 C-32.564752 93.50754345 -40.88008352 91.94794612 -48.9921875 86.71484375 C-53.77168422 83.03278511 -56.55043747 78.4527933 -59 73 C-59.53238281 71.82566406 -60.06476562 70.65132813 -60.61328125 69.44140625 C-62.55353739 64.14306198 -62.49276324 58.8993505 -62.4375 53.3125 C-62.42992676 52.24757324 -62.42235352 51.18264648 -62.41455078 50.08544922 C-62.05581223 32.93146187 -55.33408609 19.89429696 -43 8 C-31.27004028 -2.07351221 -14.54052024 -7.46524794 0 0 Z " fill="#F9FCFD" transform="translate(95,126)"/>
<path d="M0 0 C3.15929981 4.73894971 2.51077305 9.4517277 2 15 C0.41278739 22.76471623 -2.15259114 31.33145306 -8 37 C-10.44140625 37.984375 -10.44140625 37.984375 -13 38 C-15.28125 36.44140625 -15.28125 36.44140625 -17 34 C-19.07474292 22.87876771 -15.1111168 12.80802355 -9.24609375 3.55859375 C-6.55285971 0.18994052 -4.12282677 -0.52856754 0 0 Z " fill="#4673DB" transform="translate(300,164)"/>
<path d="M0 0 C2.375 0.375 2.375 0.375 4.375 2.375 C5.67290367 14.17686827 3.9291429 25.87140087 -3.625 35.375 C-4.099375 36.014375 -4.57375 36.65375 -5.0625 37.3125 C-6.625 38.375 -6.625 38.375 -9.125 38.3125 C-12.16629293 37.17201515 -12.93526476 36.10938637 -14.625 33.375 C-16.38484033 24.76605136 -13.27261725 14.09745561 -8.625 6.8125 C-7.965 6.008125 -7.305 5.20375 -6.625 4.375 C-5.985625 3.59125 -5.34625 2.8075 -4.6875 2 C-2.625 0.375 -2.625 0.375 0 0 Z " fill="#1BA5D5" transform="translate(127.625,163.625)"/>
<path d="M0 0 C0.99 0 1.98 0 3 0 C5.66908074 5.33816149 3.52019365 11.58431011 2 17 C1.01 16.67 0.02 16.34 -1 16 C-2.29376578 13.41246844 -2.16832397 11.45041015 -2.1875 8.5625 C-2.20167969 7.59441406 -2.21585938 6.62632812 -2.23046875 5.62890625 C-2 3 -2 3 0 0 Z " fill="#3C97DA" transform="translate(256,152)"/>
<path d="M0 0 C0.33 0 0.66 0 1 0 C1 3.3 1 6.6 1 10 C1.66 10.33 2.32 10.66 3 11 C1.68 12.65 0.36 14.3 -1 16 C-0.67 10.72 -0.34 5.44 0 0 Z " fill="#71C3E5" transform="translate(176,161)"/>
</svg>
