<?xml version="1.0" encoding="UTF-8"?>
<svg version="1.1" xmlns="http://www.w3.org/2000/svg" width="300" height="300">
<path d="M0 0 C99 0 198 0 300 0 C300 99 300 198 300 300 C201 300 102 300 0 300 C0 201 0 102 0 0 Z " fill="#B96EAF" transform="translate(0,0)"/>
<path d="M0 0 C54.45 0 108.9 0 165 0 C165 49.5 165 99 165 150 C162 150 162 150 159.67578125 147.8359375 C158.79277344 146.90007812 157.90976562 145.96421875 157 145 C155.07165993 143.19666956 153.13766877 141.40423388 151.1875 139.625 C150.66196533 139.14385742 150.13643066 138.66271484 149.5949707 138.16699219 C146.65962174 135.4873012 143.69626148 132.84740737 140.6875 130.25 C138.23943022 128.13302163 135.93824852 125.95006569 133.6875 123.625 C129.91837279 119.77771117 125.75982845 116.46504019 121.55078125 113.11328125 C119.21129346 111.17505324 117.03113791 109.25946254 115 107 C115 106.34 115 105.68 115 105 C114.40525879 104.72744385 113.81051758 104.4548877 113.19775391 104.17407227 C111.05990011 103.03199951 109.58388243 101.87707268 107.8359375 100.21484375 C107.27132812 99.68439453 106.70671875 99.15394531 106.125 98.60742188 C105.5475 98.05634766 104.97 97.50527344 104.375 96.9375 C100.50673691 93.03429271 100.50673691 93.03429271 96 90 C96.20496094 90.53109375 96.40992188 91.0621875 96.62109375 91.609375 C96.89050781 92.31578125 97.15992188 93.0221875 97.4375 93.75 C97.70433594 94.44609375 97.97117188 95.1421875 98.24609375 95.859375 C98.96259261 97.89378628 99.49814676 99.90402469 100 102 C100.33 103.093125 100.66 104.18625 101 105.3125 C104.76008706 119.17782104 103.76320487 136.47027412 99 150 C98.57589844 151.20914063 98.15179688 152.41828125 97.71484375 153.6640625 C89.8768129 174.96784108 74.9616294 191.29560495 55 202 C42.05136313 207.91499862 29.7027916 210.5091292 15.5 210.375 C13.65728516 210.39240234 13.65728516 210.39240234 11.77734375 210.41015625 C3.77427966 210.38469581 -3.34303776 209.32784378 -11 207 C-10.9685791 208.08829102 -10.9371582 209.17658203 -10.90478516 210.29785156 C-10.79502186 214.39031595 -10.72688805 218.48265445 -10.67041016 222.57617188 C-10.6404978 224.33746316 -10.59975134 226.0986089 -10.54736328 227.859375 C-10.20388575 239.7127173 -10.53048841 249.52005977 -18.71166992 258.97900391 C-24.907334 265.10485491 -32.67925286 267.23048625 -41.1875 267.375 C-50.81545274 267.03188721 -57.11736785 264.84515865 -64 258 C-68.21080849 252.19805093 -71.11749703 247.03773028 -71.14044189 239.78468323 C-71.14615204 238.70406113 -71.15186218 237.62343903 -71.15774536 236.5100708 C-71.15886322 235.32411316 -71.15998108 234.13815552 -71.16113281 232.91625977 C-71.16609772 231.66713303 -71.17106262 230.41800629 -71.17617798 229.13102722 C-71.18829226 225.70074084 -71.19574739 222.27051549 -71.20018864 218.84021497 C-71.20312264 216.69313054 -71.20722829 214.54605141 -71.21169281 212.39896965 C-71.22537287 205.67029424 -71.23503448 198.94163101 -71.2388947 192.21294266 C-71.24336328 184.46749622 -71.26085289 176.72222733 -71.2898953 168.97683483 C-71.31159907 162.97833133 -71.32160375 156.97987741 -71.32293582 150.9813351 C-71.32397855 147.40499889 -71.32977061 143.82882943 -71.34775543 140.25253487 C-71.36748531 136.2510132 -71.36291278 132.2498562 -71.35644531 128.24829102 C-71.37026749 126.49668167 -71.37026749 126.49668167 -71.3843689 124.70968628 C-71.34589087 117.06818021 -70.15520232 110.32045814 -68 103 C-67.78752247 102.22051782 -67.57504494 101.44103563 -67.35612869 100.63793278 C-64.10138259 88.96054421 -57.03903336 77.92136629 -49 69 C-48.44828125 68.37867187 -47.8965625 67.75734375 -47.328125 67.1171875 C-36.96570107 56.11328018 -23.44259022 48.09206723 -9 44 C-8.33097656 43.74992187 -7.66195312 43.49984375 -6.97265625 43.2421875 C-0.66967997 40.89424335 5.30160106 40.26159428 12 40 C13.20269531 39.94714844 14.40539062 39.89429688 15.64453125 39.83984375 C23.12707822 39.66260525 29.76858964 40.29700268 37 42.24609375 C40.31627902 43.07948158 43.61072044 43.56363026 47 44 C46.29617187 43.35675781 45.59234375 42.71351562 44.8671875 42.05078125 C39.08291744 36.75952821 33.31301352 31.45292977 27.5625 26.125 C26.6950415 25.32316284 26.6950415 25.32316284 25.81005859 24.50512695 C23.23175169 22.11291045 20.72192476 19.71195076 18.27734375 17.1796875 C16.11767863 14.80171868 16.11767863 14.80171868 13 14 C11.640625 12.58203125 11.640625 12.58203125 10.25 10.8125 C7.54818432 7.52008642 4.62552361 4.83970959 1.3203125 2.1640625 C0.88460937 1.77992187 0.44890625 1.39578125 0 1 C0 0.67 0 0.34 0 0 Z " fill="#FDFDFE" transform="translate(135,0)"/>
<path d="M0 0 C8.48384938 6.32652768 14.54518177 13.88166268 19.734375 23.0390625 C20.13398438 23.70421875 20.53359375 24.369375 20.9453125 25.0546875 C27.77139481 37.26978216 28.58799638 53.16355422 26.04296875 66.72265625 C25.12030982 69.93845075 24.03138256 72.95614422 22.734375 76.0390625 C22.31027344 77.05355469 21.88617188 78.06804687 21.44921875 79.11328125 C13.38671411 96.65315904 -0.63020561 108.00640135 -18.265625 115.0390625 C-35.65930257 120.71669306 -53.11062299 118.98651555 -69.578125 111.2890625 C-75.38164155 108.19229359 -80.35823994 104.39928267 -85.265625 100.0390625 C-85.90242188 99.48476562 -86.53921875 98.93046875 -87.1953125 98.359375 C-96.24216338 89.95585574 -100.60231878 79.54366054 -104.265625 68.0390625 C-104.595625 67.0490625 -104.925625 66.0590625 -105.265625 65.0390625 C-106.60510338 46.23968636 -105.02272849 29.6271504 -93.125 14.27734375 C-90.92230623 11.76273006 -88.6451862 9.38635846 -86.265625 7.0390625 C-85.56695312 6.33007812 -84.86828125 5.62109375 -84.1484375 4.890625 C-61.05011902 -17.19238278 -25.83787546 -17.15226196 0 0 Z " fill="#A09ACA" transform="translate(190.265625,72.9609375)"/>
<path d="M0 0 C54.45 0 108.9 0 165 0 C165 49.5 165 99 165 150 C162 150 162 150 159.67578125 147.8359375 C158.79277344 146.90007812 157.90976562 145.96421875 157 145 C155.07165993 143.19666956 153.13766877 141.40423388 151.1875 139.625 C150.66196533 139.14385742 150.13643066 138.66271484 149.5949707 138.16699219 C146.65962174 135.4873012 143.69626148 132.84740737 140.6875 130.25 C138.23943022 128.13302163 135.93824852 125.95006569 133.6875 123.625 C129.91837279 119.77771117 125.75982845 116.46504019 121.55078125 113.11328125 C119.21129346 111.17505324 117.03113791 109.25946254 115 107 C115 106.34 115 105.68 115 105 C114.10788818 104.59116577 114.10788818 104.59116577 113.19775391 104.17407227 C111.05990011 103.03199951 109.58388243 101.87707268 107.8359375 100.21484375 C107.27132812 99.68439453 106.70671875 99.15394531 106.125 98.60742188 C105.25875 97.78081055 105.25875 97.78081055 104.375 96.9375 C100.50673691 93.03429271 100.50673691 93.03429271 96 90 C96.33 90.99 96.66 91.98 97 93 C96.01 93.495 96.01 93.495 95 94 C94.60425781 92.82566406 94.20851563 91.65132813 93.80078125 90.44140625 C92.17123049 86.10452922 89.94996222 82.63064519 87.1875 78.9375 C86.51340088 78.02254761 86.51340088 78.02254761 85.82568359 77.08911133 C84.56091643 75.38457399 83.2817368 73.69178509 82 72 C81.48308594 71.29359375 80.96617187 70.5871875 80.43359375 69.859375 C70.67126288 57.38690452 54.31412975 49.95018727 40 44 C42 43 42 43 46 43 C45.45214844 42.51273438 44.90429688 42.02546875 44.33984375 41.5234375 C38.89951717 36.65810479 33.52565362 31.72703359 28.1875 26.75 C27.55384521 26.16009277 26.92019043 25.57018555 26.26733398 24.96240234 C23.52815571 22.40294309 20.84392398 19.83840503 18.23828125 17.140625 C16.10880376 14.79895664 16.10880376 14.79895664 13 14 C11.640625 12.58203125 11.640625 12.58203125 10.25 10.8125 C7.54818432 7.52008642 4.62552361 4.83970959 1.3203125 2.1640625 C0.88460937 1.77992187 0.44890625 1.39578125 0 1 C0 0.67 0 0.34 0 0 Z " fill="#28BBEE" transform="translate(135,0)"/>
<path d="M0 0 C6.90758167 5.121546 11.71158985 10.87601395 15.28125 18.69140625 C15.6009375 19.35398437 15.920625 20.0165625 16.25 20.69921875 C20.43157197 30.88212086 19.24475453 43.48770606 15.67578125 53.65234375 C10.15771803 65.67770281 1.38393593 73.72066024 -10.71875 78.69140625 C-20.9535909 82.24430473 -34.25188855 82.60690352 -44.40625 78.62890625 C-58.81359542 71.4049415 -66.40424 60.9913134 -72.03125 46.25390625 C-74.41076552 33.92368945 -71.89927154 22.67133555 -65.59375 11.87890625 C-61.81824429 6.32097296 -57.22292739 2.47440765 -51.71875 -1.30859375 C-51.13351563 -1.72882813 -50.54828125 -2.1490625 -49.9453125 -2.58203125 C-34.65384583 -12.50283646 -14.57296442 -9.4393065 0 0 Z " fill="#FDFDFE" transform="translate(177.71875,89.30859375)"/>
<path d="M0 0 C3.3521921 2.01693739 5.97091274 4.30493677 8.5 7.3125 C8.96664062 7.86550781 9.43328125 8.41851562 9.9140625 8.98828125 C13.55539852 13.90103347 14.26370423 18.21847971 13.98046875 24.28125 C12.81421038 31.63910768 9.30540751 37.61719536 3.375 42.12890625 C-2.85469658 46.06140221 -9.17306416 47.37251774 -16.5 46.3125 C-19.4229534 45.31777764 -21.90687027 43.97535898 -24.5 42.3125 C-25.386875 41.77625 -26.27375 41.24 -27.1875 40.6875 C-32.663415 35.0635873 -34.83306669 29.05597169 -35.1875 21.25 C-34.89297404 13.50817473 -32.25455767 9.1329271 -26.94140625 3.7265625 C-19.73104114 -2.75340198 -8.81979598 -4.14950401 0 0 Z " fill="#A49FCC" transform="translate(161.5,103.6875)"/>
<path d="M0 0 C6.36710687 4.20146595 6.36710687 4.20146595 9.359375 6.54296875 C9.91753906 6.97673828 10.47570312 7.41050781 11.05078125 7.85742188 C11.61152344 8.29634766 12.17226562 8.73527344 12.75 9.1875 C16.68892494 12.3768786 16.68892494 12.3768786 21 15 C21.09913284 20.72911572 21.1715934 26.45772839 21.21972656 32.1875 C21.23979906 34.13517966 21.26706332 36.08279937 21.30175781 38.03027344 C21.35046852 40.83543721 21.37301241 43.63980187 21.390625 46.4453125 C21.41127014 47.31116974 21.43191528 48.17702698 21.45318604 49.06912231 C21.45519074 54.51275182 20.73589638 57.74209011 17 62 C13.2882681 63.23724397 9.85008649 63.6979689 6 63 C3.0625 60.5625 3.0625 60.5625 1 58 C0.67 57.67 0.34 57.34 0 57 C-0.09370624 55.22008076 -0.11744271 53.43643261 -0.11352539 51.65405273 C-0.11344986 50.5129454 -0.11337433 49.37183807 -0.11329651 48.19615173 C-0.10813522 46.9545076 -0.10297394 45.71286346 -0.09765625 44.43359375 C-0.0962413 43.16983414 -0.09482635 41.90607452 -0.09336853 40.60401917 C-0.08870582 37.23875111 -0.0797148 33.8735501 -0.06866455 30.50830078 C-0.05844846 27.0765033 -0.05387049 23.64469891 -0.04882812 20.21289062 C-0.0377738 13.47524176 -0.0210171 6.73762475 0 0 Z " fill="#E2338A" transform="translate(84,183)"/>
<path d="M0 0 C2 1 2 1 2.7109375 3.07421875 C2.93007813 3.93660156 3.14921875 4.79898437 3.375 5.6875 C5.65383114 13.5904415 10.07121763 19.50771253 17 24 C24.5761276 27.55009533 32.22187906 27.44281964 40.43530273 27.43237305 C41.87899098 27.44140675 43.3226716 27.45173788 44.76634216 27.46325684 C48.6729467 27.49075097 52.57940549 27.50010764 56.48609424 27.50611091 C60.61554716 27.51557253 64.74489544 27.54180871 68.87428284 27.56611633 C76.72413472 27.60977774 84.57396635 27.63829659 92.42390257 27.66143972 C101.22346084 27.68815062 110.02290269 27.7322927 118.8223809 27.77772844 C131.90760732 27.84466322 144.9928633 27.90450176 158.07818902 27.94823515 C159.57064955 27.95325636 161.06310944 27.95847312 162.55556858 27.96389234 C170.84715289 27.99360435 179.13812268 28.00130102 187.42971802 27.97158813 C188.98043577 27.96720861 190.53115377 27.96291124 192.08187199 27.95869923 C194.98466757 27.9507932 197.88732333 27.93635986 200.79006863 27.91791058 C208.2561065 27.89614017 215.581171 28.13715534 223 29 C223 29.33 223 29.66 223 30 C149.41 30 75.82 30 0 30 C0 20.1 0 10.2 0 0 Z " fill="#E92386" transform="translate(0,270)"/>
<path d="M0 0 C0.33 0 0.66 0 1 0 C1 8.25 1 16.5 1 25 C-7.25 25 -15.5 25 -24 25 C-21.96870827 23.98435413 -19.93660238 22.96976601 -17.88671875 21.9921875 C-8.11635341 17.02891132 -3.39501254 10.29047281 0 0 Z " fill="#47704C" transform="translate(299,275)"/>
<path d="M0 0 C2 2 2 2 3.1875 5.125 C6.68924842 13.48738429 13.03541343 18.20173136 21 22 C22.32 22.66 23.64 23.32 25 24 C16.75 24 8.5 24 0 24 C0 16.08 0 8.16 0 0 Z " fill="#48704E" transform="translate(0,276)"/>
<path d="M0 0 C7.59 0 15.18 0 23 0 C23 7.92 23 15.84 23 24 C21.45757138 21.68635707 20.2968427 19.61395515 19.125 17.125 C15.23255629 9.3965248 10.38772068 6.20569741 3 2 C2.01 1.34 1.02 0.68 0 0 Z " fill="#47704C" transform="translate(277,0)"/>
<path d="M0 0 C7.59 0 15.18 0 23 0 C20 2 20 2 17.73046875 3.2265625 C8.99844167 8.02850673 4.4702961 13.74587707 1 23 C0.67 23 0.34 23 0 23 C0 15.41 0 7.82 0 0 Z " fill="#47704C" transform="translate(0,0)"/>
<path d="M0 0 C-1 2 -1 2 -3.22265625 2.82421875 C-4.15980469 3.10910156 -5.09695312 3.39398438 -6.0625 3.6875 C-11.24166211 5.46109327 -14.57392205 7.78209334 -18.44140625 11.609375 C-20 13 -20 13 -22 13 C-19.49603395 7.11504426 -13.98090267 3.7478793 -8.3125 1.125 C-5.26338645 0.089452 -3.17807575 -0.28891598 0 0 Z " fill="#AB98C8" transform="translate(28,0)"/>
<path d="M0 0 C1.30979218 3.61032461 0.69111399 5.62664358 -0.75 9.125 C-1.09546875 9.99382812 -1.4409375 10.86265625 -1.796875 11.7578125 C-3 14 -3 14 -6 16 C-4.27933894 10.55123997 -2.15294651 5.28830549 0 0 Z " fill="#E7358E" transform="translate(125,240)"/>
</svg>
