<svg xmlns="http://www.w3.org/2000/svg"  viewBox="0 0 48 48" width="48px" height="48px"><path fill="#373837" d="M4.588,31.221c-0.392,3.921,0.482,8.343,3.415,10.902c2.68,2.338,6.555,2.365,10.077,2.272 c5.105-0.136,10.21-0.271,15.315-0.407c0.809-0.021,1.622-0.043,2.415-0.206c3.216-0.657,5.631-3.568,6.697-6.738 s1.025-6.602,0.971-9.954c-0.055-3.463-0.11-6.926-0.165-10.389c-0.036-2.255-0.103-4.628-1.238-6.562 c-0.873-1.488-2.336-3.183-3.852-3.964c-3.004-1.548-11.293-1.464-13.001-1.569c-4.876-0.301-9.928-0.577-14.487,1.218 c-1.892,0.745-3.722,1.908-4.75,3.695c-1.564,2.72-0.89,6.266-0.974,9.419C4.899,23.109,4.98,27.302,4.588,31.221z"/><path fill="#010101" d="M43.935,24.369c-0.045-2.839-0.063-5.68-0.139-8.518c-0.065-2.425-0.393-4.743-1.81-6.775 c-1.126-1.613-2.588-3.093-4.485-3.737c-1.551-0.527-3.226-0.717-4.849-0.873c-1.716-0.165-3.44-0.24-5.163-0.29 c-4.112-0.119-8.238-0.573-12.336,0.005C10.758,4.801,5.67,6.75,4.692,11.61c-0.473,2.35-0.14,4.752-0.178,7.126 c-0.046,2.828-0.063,5.659-0.167,8.485c-0.049,1.336-0.129,2.669-0.259,4c-0.389,4.108,0.513,8.92,3.959,11.579 c3.72,2.87,9.116,2.118,13.49,2.002c2.882-0.077,5.764-0.153,8.645-0.23c2.499-0.066,5.238,0.19,7.55-0.929 c4.178-2.022,5.802-6.859,6.153-11.167C44.106,29.784,43.978,27.066,43.935,24.369z M39.795,40.802 c-1.518,1.696-3.405,2.561-5.672,2.663c-2.628,0.118-5.262,0.144-7.892,0.214c-2.676,0.071-5.352,0.143-8.028,0.213 c-2.124,0.056-4.3,0.103-6.377-0.414c-2.063-0.513-3.815-1.656-4.98-3.453c-1.116-1.722-1.655-3.774-1.802-5.806 c-0.073-0.999-0.05-2.001,0.044-2.998c0.251-2.576,0.308-5.164,0.345-7.75c0.035-2.476,0.105-4.948,0.03-7.424 c-0.067-2.2-0.124-4.595,1.104-6.524c1.191-1.87,3.313-2.937,5.361-3.597c4.45-1.434,9.077-0.979,13.661-0.805 c2.906,0.111,5.821,0.121,8.705,0.535c1.411,0.203,2.941,0.445,4.161,1.23c1.849,1.19,3.407,3.279,3.946,5.41 c0.599,2.369,0.42,4.947,0.459,7.371c0.042,2.664,0.089,5.328,0.127,7.993C43.051,32.173,42.983,37.24,39.795,40.802z"/><path fill="#71c598" d="M11.033,19.593c2.363-3.967,6.71-6.709,11.296-7.238c4.774-0.551,9.749,1.385,12.444,5.456 c1.472,2.224,2.198,4.862,1.974,7.525c-0.054,0.641,0.946,0.638,1,0c0.426-5.076-2.469-10.066-6.95-12.417 c-4.584-2.404-10.077-2.049-14.566,0.39c-2.493,1.355-4.608,3.34-6.062,5.78C9.839,19.643,10.703,20.146,11.033,19.593 L11.033,19.593z"/><path fill="#71c598" d="M19.373,16.485c3.438-1.494,7.559-1.099,10.598,1.114c2.947,2.146,4.322,6.059,3.711,9.621 c-0.357,2.084-1.481,3.932-2.829,5.525c-0.414,0.488,0.29,1.199,0.707,0.707c1.331-1.571,2.469-3.353,2.963-5.374 c0.466-1.91,0.343-4.009-0.206-5.888c-1.145-3.916-4.528-6.728-8.52-7.416c-2.356-0.406-4.74-0.103-6.929,0.848 C18.279,15.877,18.788,16.739,19.373,16.485L19.373,16.485z"/><path fill="#71c598" d="M23.079,34.068c3.713-0.186,7.279-2.551,8.504-6.133c1.156-3.381-0.086-7.362-2.998-9.429 C28.059,18.133,27.559,19,28.08,19.37c2.559,1.816,3.541,5.369,2.539,8.3c-1.075,3.143-4.292,5.236-7.54,5.398 C22.439,33.1,22.435,34.1,23.079,34.068L23.079,34.068z"/><path fill="#71c598" d="M20.076,28.857c0.848,1.757,3.345,1.923,4.98,1.383c2.054-0.679,3.781-2.548,3.936-4.748 c0.045-0.642-0.955-0.639-1,0c-0.122,1.734-1.596,3.253-3.202,3.784c-1.219,0.403-3.199,0.426-3.85-0.923 C20.66,27.773,19.797,28.28,20.076,28.857L20.076,28.857z"/></svg>