<?xml version="1.0" encoding="UTF-8"?>
<svg version="1.1" xmlns="http://www.w3.org/2000/svg" width="360" height="267">
<path d="M0 0 C77.22 0 154.44 0 234 0 C234 0.66 234 1.32 234 2 C235.010625 2.061875 236.02125 2.12375 237.0625 2.1875 C241.49605409 2.81829022 244.81964333 4.88677487 248 8 C248.32355469 8.65355469 248.64710938 9.30710937 248.98046875 9.98046875 C250.1635112 12.32389 251.44151126 13.39507658 253.5 15 C256.24987277 17.1439686 257.60445015 18.80698194 259 22 C259.49757813 23.06734375 259.99515625 24.1346875 260.5078125 25.234375 C261.04148437 26.39453125 261.57515625 27.5546875 262.125 28.75 C262.93324219 30.50570313 262.93324219 30.50570313 263.7578125 32.296875 C264.37269531 33.63492188 264.37269531 33.63492188 265 35 C270.22332137 34.40907879 274.47469457 31.89202769 279.0625 29.5 C280.65562815 28.67336483 282.25062064 27.85031059 283.84765625 27.03125 C284.54898682 26.66580078 285.25031738 26.30035156 285.97290039 25.92382812 C288 25 288 25 290.00952148 24.56054688 C292.50490609 23.85781131 293.94472017 22.57789438 296 21 C299.95976134 18.804631 304.0007048 16.77165606 308.04492188 14.73730469 C309.9994904 13.75025734 311.9448728 12.74647837 313.890625 11.7421875 C315.13488581 11.11353153 316.37966072 10.48589185 317.625 9.859375 C318.75164062 9.28670898 319.87828125 8.71404297 321.0390625 8.12402344 C324 7 324 7 326.3359375 7.19628906 C328 8 328 8 329 10 C329.09920439 12.87018892 329.13981107 15.71558342 329.1328125 18.5859375 C329.13424759 19.86593124 329.13424759 19.86593124 329.13571167 21.17178345 C329.13639286 22.97910638 329.13454282 24.78643175 329.13037109 26.59375 C329.1250351 29.35682706 329.13031134 32.1197406 329.13671875 34.8828125 C329.1360577 36.63802119 329.13477598 38.39322978 329.1328125 40.1484375 C329.13483673 40.97459564 329.13686096 41.80075378 329.13894653 42.65194702 C329.13579437 43.42599884 329.13264221 44.20005066 329.12939453 44.99755859 C329.12820114 46.01443253 329.12820114 46.01443253 329.12698364 47.05184937 C328.98163255 49.28178876 328.87013941 50.92408241 328 53 C325.81915283 54.51467896 325.81915283 54.51467896 322.89550781 55.95751953 C321.80216125 56.5055423 320.7088147 57.05356506 319.58233643 57.61819458 C318.37275803 58.20672693 317.16301618 58.79492344 315.953125 59.3828125 C314.7039048 60.00215124 313.45527732 60.6226868 312.20721436 61.24435425 C308.90050117 62.8871607 305.58557528 64.51269979 302.26879883 66.1350708 C298.97851394 67.74848024 295.69680177 69.37912224 292.4140625 71.0078125 C279.46742546 77.42128439 266.47383589 83.73205505 253.40917969 89.90209961 C248.91411306 92.02968591 244.45305521 94.22353219 240 96.4375 C239.04368683 96.91212173 239.04368683 96.91212173 238.0680542 97.39633179 C235.38608013 98.74209086 232.79026598 100.12993423 230.23828125 101.7109375 C227.62314813 103.21703511 225.96940391 103.25452034 223 103 C223 103.66 223 104.32 223 105 C217.4744186 107.88837209 217.4744186 107.88837209 214.875 108.5 C212.86586618 108.90107631 212.86586618 108.90107631 211.125 110.5 C208.46395426 112.37838523 206.20015886 112.63634558 203 113 C203 113.66 203 114.32 203 115 C197.4744186 117.88837209 197.4744186 117.88837209 194.875 118.5 C192.86586618 118.90107631 192.86586618 118.90107631 191.125 120.5 C188.46395426 122.37838523 186.20015886 122.63634558 183 123 C183 123.66 183 124.32 183 125 C177.06 127.97 171.12 130.94 165 134 C168.33810482 135.66905241 171.46157845 136.8741386 175 138 C175 138.66 175 139.32 175 140 C176.25683594 140.13728516 176.25683594 140.13728516 177.5390625 140.27734375 C181.5174342 141.10804213 184.8126503 142.68464343 188.375 144.5625 C189.01566406 144.89185547 189.65632812 145.22121094 190.31640625 145.56054688 C191.88138632 146.36639482 193.44124021 147.18218493 195 148 C195 148.66 195 149.32 195 150 C196.093125 150.103125 197.18625 150.20625 198.3125 150.3125 C201.9618448 150.99288632 202.81168 151.23580631 205 154 C206.96813067 155.1071686 206.96813067 155.1071686 209.22265625 155.3671875 C212.63835131 156.14544713 215.31854989 157.51858423 218.4375 159.125 C219.83170286 159.83658128 221.22626907 160.54745086 222.62109375 161.2578125 C223.43562012 161.67450195 224.25014648 162.09119141 225.08935547 162.52050781 C230.68456173 165.3645734 236.30486591 168.15877135 241.92068481 170.96185303 C245.28123174 172.63968506 248.64057579 174.31992149 252 176 C253.155 176.5775 254.31 177.155 255.5 177.75 C256.325 178.1625 257.15 178.575 258 179 C258 179.66 258 180.32 258 181 C258.81549316 181.0817749 259.63098633 181.1635498 260.47119141 181.24780273 C264.89142213 182.19001464 268.46053914 183.98037011 272.4609375 186.03515625 C273.25150543 186.43327011 274.04207336 186.83138397 274.8565979 187.24156189 C277.3666067 188.5077103 279.87080276 189.78490235 282.375 191.0625 C284.08165887 191.9258667 285.78868643 192.78850502 287.49609375 193.65039062 C291.66837878 195.75851676 295.83548852 197.87656166 300 200 C300 200.66 300 201.32 300 202 C301.25683594 202.13728516 301.25683594 202.13728516 302.5390625 202.27734375 C306.5174342 203.10804213 309.8126503 204.68464343 313.375 206.5625 C314.01566406 206.89185547 314.65632813 207.22121094 315.31640625 207.56054688 C316.88138632 208.36639482 318.44124021 209.18218493 320 210 C320 210.66 320 211.32 320 212 C320.94875 212.12375 321.8975 212.2475 322.875 212.375 C326 213 326 213 328 215 C329.67912768 218.35825535 329.14155227 222.14737929 329.1328125 225.83984375 C329.13424759 227.15668907 329.13424759 227.15668907 329.13571167 228.50013733 C329.13639283 230.35873486 329.13454302 232.21733476 329.13037109 234.07592773 C329.12502831 236.92241769 329.13031496 239.76874939 329.13671875 242.61523438 C329.13605783 244.41927118 329.13477639 246.22330789 329.1328125 248.02734375 C329.13483673 248.88053696 329.13686096 249.73373016 329.13894653 250.61277771 C329.12554607 253.98885897 329.07498076 256.77505771 328 260 C323.09722442 259.44540223 319.18778024 257.86079194 314.8515625 255.62109375 C314.19417084 255.28956802 313.53677917 254.9580423 312.85946655 254.61647034 C310.77740601 253.56431765 308.70121523 252.50113288 306.625 251.4375 C305.20740544 250.71866264 303.78944012 250.00055593 302.37109375 249.28320312 C298.90971593 247.53055935 295.45355528 245.76800466 292 244 C292 243.34 292 242.68 292 242 C290.81664062 241.89365234 290.81664062 241.89365234 289.609375 241.78515625 C284.76117635 240.73051563 280.6751101 238.63658439 276.25 236.4375 C274.5485357 235.59948432 272.84548492 234.76467961 271.140625 233.93359375 C270.39329102 233.56290771 269.64595703 233.19222168 268.87597656 232.81030273 C267.03457517 231.86782415 267.03457517 231.86782415 265 232 C264.50628906 233.05960938 264.01257813 234.11921875 263.50390625 235.2109375 C262.85678529 236.59896507 262.20964908 237.98698554 261.5625 239.375 C261.23701172 240.07367188 260.91152344 240.77234375 260.57617188 241.4921875 C257.03476903 249.0861235 257.03476903 249.0861235 253.625 251.8125 C251.31753628 253.73227244 250.00837262 254.98534791 248.5 257.625 C246.36614386 261.00360555 243.63710311 262.46535734 240 264 C236.5625 264.75 236.5625 264.75 234 265 C234 265.66 234 266.32 234 267 C204.2238352 267.04558887 174.44767157 267.08100057 144.67147941 267.10213066 C141.15907866 267.10463218 137.64667799 267.10722082 134.13427734 267.10986328 C133.43499811 267.1103879 132.73571887 267.11091252 132.01524936 267.11145304 C120.68076887 267.12016443 109.3463086 267.13593843 98.01184012 267.15430559 C86.38852374 267.17298426 74.76521918 267.18396262 63.1418885 267.18817699 C56.61034083 267.19079106 50.07883906 267.19696188 43.54730606 267.21146011 C37.4062379 267.22498186 31.26523477 267.22923366 25.12415314 267.22621536 C22.86418429 267.22676796 20.60421338 267.23077744 18.34425735 267.23841095 C15.27077491 267.24828764 12.19754156 267.24599566 9.12405396 267.24050903 C8.21939774 267.24633472 7.31474152 267.2521604 6.38267148 267.25816262 C0.22824242 267.22824242 0.22824242 267.22824242 -2 265 C-2.59554688 264.86207031 -3.19109375 264.72414063 -3.8046875 264.58203125 C-6.69429015 263.81592663 -8.6775961 262.39337705 -11.125 260.6875 C-11.99382813 260.09324219 -12.86265625 259.49898438 -13.7578125 258.88671875 C-16.02313283 256.98053457 -16.79092021 255.63347516 -18 253 C-19.2684375 252.2575 -19.2684375 252.2575 -20.5625 251.5 C-23 250 -23 250 -23.46484375 248.3125 C-23.64144531 247.549375 -23.81804688 246.78625 -24 246 C-24.96916965 243.81936829 -25.97251425 241.6537682 -27 239.5 C-29.50241489 234.2545534 -31.12985881 230.22973636 -31.11352539 224.41503906 C-31.11344986 223.51440735 -31.11337433 222.61377563 -31.11329651 221.68585205 C-31.10813522 220.72217712 -31.10297394 219.7585022 -31.09765625 218.765625 C-31.0962413 217.77246277 -31.09482635 216.77930054 -31.09336853 215.75604248 C-31.08777588 212.58733088 -31.0752247 209.41869021 -31.0625 206.25 C-31.05748405 204.10026144 -31.05292131 201.95052177 -31.04882812 199.80078125 C-31.03780886 194.53383001 -31.021078 189.26692007 -31 184 C-29.26253255 183.01529948 -27.5250651 182.03059896 -25.78759766 181.04589844 C-24.28467658 180.16656029 -22.8238209 179.2158806 -21.375 178.25 C-18.69046846 176.83708867 -16.99017656 176.74369915 -14 177 C-14 176.34 -14 175.68 -14 175 C-8.4744186 172.11162791 -8.4744186 172.11162791 -5.875 171.5 C-3.90309847 171.1025229 -3.90309847 171.1025229 -2.2578125 169.6640625 C0.37074921 167.72674885 3.0772579 166.32906419 6 164.875 C7.03125 164.35679687 8.0625 163.83859375 9.125 163.3046875 C12 162 12 162 14.125 161.5078125 C16.10799007 161.09627655 16.10799007 161.09627655 17.81440735 159.62625122 C20.07920311 157.94106672 22.31669192 156.72485339 24.84448242 155.47216797 C25.8019487 154.99512421 26.75941498 154.51808044 27.74589539 154.02658081 C28.7720546 153.52023102 29.79821381 153.01388123 30.85546875 152.4921875 C31.91284744 151.96609894 32.97022614 151.44001038 34.05964661 150.89797974 C37.43372103 149.2198436 40.81042385 147.5470862 44.1875 145.875 C47.57493137 144.1950719 50.96178004 142.51399496 54.3474884 140.83059692 C56.45421963 139.78338293 58.56201596 138.73830856 60.67094421 137.69552612 C61.61895401 137.22478668 62.56696381 136.75404724 63.54370117 136.26904297 C64.38213058 135.85395477 65.22056 135.43886658 66.08439636 135.01119995 C67.95316376 134.14524736 67.95316376 134.14524736 69 133 C65.04 131.02 61.08 129.04 57 127 C57 126.34 57 125.68 57 125 C55.98873047 125.10828125 55.98873047 125.10828125 54.95703125 125.21875 C51.03550393 124.92865022 48.0967094 123.3146338 44.6875 121.5 C43.42088945 120.84313927 42.15394209 120.18692775 40.88671875 119.53125 C40.14623291 119.14557861 39.40574707 118.75990723 38.64282227 118.36254883 C29.55617571 113.67778445 20.37503193 109.17763951 11.19166565 104.68643188 C6.94049678 102.60465641 2.69491758 100.51162525 -1.55004883 98.41723633 C-3.74588952 97.33714497 -5.94418755 96.26203669 -8.14477539 95.19165039 C-11.35965305 93.62653442 -14.56523334 92.0436716 -17.76953125 90.45703125 C-18.75379593 89.98296341 -19.73806061 89.50889557 -20.75215149 89.02046204 C-24.35726545 87.21895336 -27.3476574 85.69810913 -30.11230469 82.73950195 C-31.41700728 78.71308066 -31.44799118 74.9207657 -31.43359375 70.7109375 C-31.4388356 69.81186676 -31.44407745 68.91279602 -31.44947815 67.98648071 C-31.45589063 66.08523589 -31.45457137 64.18395136 -31.44604492 62.28271484 C-31.4375887 59.40518396 -31.46621907 56.52967599 -31.49804688 53.65234375 C-31.53491525 44.14004414 -31.49929187 35.63947072 -27 27 C-26.49597656 25.99324219 -25.99195313 24.98648437 -25.47265625 23.94921875 C-22.58537933 19.31837848 -19.60082051 15.10093447 -16 11 C-15.34 10.01 -14.68 9.02 -14 8 C-13.01 7.67 -12.02 7.34 -11 7 C-10.236875 6.34 -9.47375 5.68 -8.6875 5 C-5.69243337 2.7711132 -3.6714771 2.34153275 0 2 C0 1.34 0 0.68 0 0 Z " fill="#030303" transform="translate(31,0)"/>
<path d="M0 0 C1.06949638 0.49558914 1.06949638 0.49558914 2.16059875 1.00119019 C2.88659775 1.35641754 3.61259674 1.7116449 4.3605957 2.07763672 C5.20252472 2.48863113 6.04445374 2.89962555 6.91189575 3.32307434 C7.82397797 3.77075668 8.73606018 4.21843903 9.67578125 4.6796875 C10.6498996 5.15633347 11.62401794 5.63297943 12.62765503 6.12406921 C15.85703636 7.70548003 19.08486475 9.2900288 22.3125 10.875 C23.41727692 11.41679901 24.52205383 11.95859802 25.66030884 12.51681519 C52.85145152 25.85494218 79.93167588 39.41475339 107 53 C107.03388056 54.76028325 107.05805421 56.52075513 107.078125 58.28125 C107.09262695 59.26158203 107.10712891 60.24191406 107.12207031 61.25195312 C106.96303904 64.83206504 106.04830852 67.07384498 104 70 C99.38282871 74.18431148 94.8663593 74.15165737 88.90374756 74.16062927 C87.65161874 74.168261 87.65161874 74.168261 86.37419438 74.17604691 C83.56684741 74.19178877 80.7595262 74.200301 77.95214844 74.20874023 C75.94338314 74.21827721 73.93461949 74.2281683 71.92585754 74.23838806 C65.32038323 74.26978808 58.71489626 74.29003996 52.109375 74.30859375 C50.98602029 74.31189107 49.86266558 74.31518839 48.70526981 74.31858563 C38.1136075 74.34936435 27.52194238 74.37607521 16.93024826 74.39300442 C3.3764906 74.41492121 -10.17687143 74.4569145 -23.7304709 74.52644199 C-33.25752368 74.57365727 -42.78446961 74.59793461 -52.31163573 74.6052013 C-58.0034219 74.61016082 -63.69476223 74.62527095 -69.3864212 74.6649456 C-74.74142364 74.70178179 -80.09572505 74.71023131 -85.45083046 74.69693947 C-87.41524114 74.69699347 -89.37968266 74.70730927 -91.34397697 74.7286911 C-94.02876876 74.75635138 -96.711 74.74687487 -99.39581299 74.72825623 C-100.17102114 74.74505115 -100.94622929 74.76184608 -101.7449286 74.77914995 C-107.05071647 74.68735969 -109.78392219 73.15757868 -113.6735847 69.57986599 C-116.4352535 66.29049907 -116.10646842 62.90156288 -116.0625 58.8125 C-116.05347656 57.72582031 -116.04445312 56.63914063 -116.03515625 55.51953125 C-116.02355469 54.68808594 -116.01195312 53.85664063 -116 53 C-111.295607 50.63510582 -106.58969759 48.2732616 -101.88256836 45.91381836 C-100.29331671 45.11673288 -98.70442887 44.31892149 -97.1159668 43.52026367 C-87.7847037 38.82934818 -78.41788426 34.23160621 -68.98046875 29.7578125 C-60.43176407 25.70012928 -51.9774727 21.48060189 -43.5546875 17.16796875 C-41.28262158 16.0096293 -39.01048607 14.85142633 -36.73828125 13.69335938 C-33.26436102 11.92213186 -29.79373382 10.14544512 -26.33056641 8.35327148 C-22.91342421 6.58750379 -19.48545925 4.84457204 -16.0546875 3.10546875 C-15.01520966 2.56093552 -13.97573181 2.01640228 -12.90475464 1.45536804 C-11.9382901 0.97018204 -10.97182556 0.48499603 -9.97607422 -0.01489258 C-9.13277557 -0.44804276 -8.28947693 -0.88119293 -7.42062378 -1.32746887 C-4.2254465 -2.21519715 -2.91337869 -1.484095 0 0 Z " fill="#FDFDFD" transform="translate(153,156)"/>
<path d="M0 0 C1.26187577 -0.00807831 1.26187577 -0.00807831 2.54924399 -0.01631981 C5.36668298 -0.03062144 8.1836536 -0.02349024 11.00111389 -0.01637268 C13.02165098 -0.02207509 15.04218485 -0.02903885 17.06271362 -0.03717041 C22.55029506 -0.05513109 28.03771685 -0.05392795 33.52531886 -0.04822803 C38.10547591 -0.04514041 42.6856021 -0.05122386 47.26575476 -0.05726677 C58.0701453 -0.07131992 68.87445679 -0.06974409 79.67884827 -0.05836487 C90.82779069 -0.04688229 101.97649261 -0.06095998 113.12540334 -0.08776134 C122.69581197 -0.10990728 132.26614504 -0.11655822 141.83657748 -0.11068493 C147.55332069 -0.10731159 153.26990971 -0.1097556 158.98663139 -0.12693596 C164.3621009 -0.14238532 169.73721368 -0.13847169 175.11266899 -0.11963081 C177.08553498 -0.1159394 179.05842729 -0.11906942 181.03126907 -0.1295166 C183.724628 -0.14269039 186.41679971 -0.13121126 189.11010742 -0.11352539 C189.89075512 -0.1231304 190.67140283 -0.1327354 191.47570652 -0.14263147 C197.63329449 -0.05944199 201.16202683 1.97751076 205.48182678 6.21580505 C207.0792159 9.26786123 206.90860685 11.71896948 206.80604553 15.13768005 C206.76544006 16.89338318 206.76544006 16.89338318 206.72401428 18.68455505 C206.68920959 19.5765863 206.65440491 20.46861755 206.61854553 21.38768005 C198.4116857 25.50285574 190.20365078 29.6156764 181.99423122 33.72574329 C178.17957213 35.63564798 174.36527647 37.54627015 170.55189514 39.45872498 C139.5325277 55.01414582 139.5325277 55.01414582 125.01025391 61.84613037 C116.48620933 65.86767666 108.17301293 70.2748062 99.88417053 74.75779724 C93.14908231 76.63026789 87.01440995 72.92810062 81.18592834 69.94725037 C79.80638474 69.25682144 79.80638474 69.25682144 78.39897156 68.55244446 C75.36841738 67.0328875 72.3451554 65.49937285 69.32167053 63.96580505 C67.2061525 62.90210707 65.09015766 61.8393569 62.97370911 60.7775116 C57.40377568 57.9801777 51.83977286 55.17124984 46.27711487 52.35948181 C38.45847716 48.40998194 30.63196303 44.47610864 22.80622864 40.54069519 C18.64270325 38.44690342 14.48144491 36.34870912 10.32197571 34.24687195 C8.40424215 33.27978799 6.48649775 32.31272552 4.56874084 31.34568787 C3.7216153 30.91639984 2.87448975 30.48711182 2.00169373 30.04481506 C-4.05427227 26.99503344 -10.19169318 24.15515667 -16.38145447 21.38768005 C-16.46296191 19.32584373 -16.52087387 17.26306656 -16.56895447 15.20018005 C-16.60375916 14.05162537 -16.63856384 12.90307068 -16.67442322 11.7197113 C-16.34734803 7.99977613 -15.69493959 6.29333707 -13.38145447 3.38768005 C-9.112969 0.08291695 -5.20310292 -0.03994348 0 0 Z " fill="#FDFDFD" transform="translate(53.38145446777344,36.61231994628906)"/>
<path d="M0 0 C0.86625 0.3403125 0.86625 0.3403125 1.75 0.6875 C0.76 1.1825 0.76 1.1825 -0.25 1.6875 C-0.9337045 3.01217746 -1.59964186 4.34613633 -2.25 5.6875 C-2.91 6.3475 -3.57 7.0075 -4.25 7.6875 C-4.49606015 10.69636724 -4.62380782 13.61967752 -4.6640625 16.6328125 C-4.68342865 17.5178244 -4.7027948 18.4028363 -4.7227478 19.31466675 C-4.78262723 22.14717916 -4.82896213 24.97973203 -4.875 27.8125 C-4.91317211 29.73048668 -4.95222338 31.64845607 -4.9921875 33.56640625 C-5.08833555 38.27329748 -5.17233542 42.98026896 -5.25 47.6875 C-5.58 47.6875 -5.91 47.6875 -6.25 47.6875 C-6.35130235 41.33387854 -6.42142368 34.98046477 -6.46972656 28.6262207 C-6.48985958 26.46403216 -6.51716833 24.30189817 -6.55175781 22.13989258 C-6.60020117 19.03453116 -6.62295172 15.92988864 -6.640625 12.82421875 C-6.66127014 11.85538254 -6.68191528 10.88654633 -6.70318604 9.88835144 C-6.70348816 8.9876442 -6.70379028 8.08693695 -6.70410156 7.15893555 C-6.71298401 6.36617722 -6.72186646 5.57341888 -6.73101807 4.75663757 C-6.25 2.6875 -6.25 2.6875 -4.36224365 0.88850403 C-2.25 -0.3125 -2.25 -0.3125 0 0 Z " fill="#2B2B2B" transform="translate(6.25,181.3125)"/>
<path d="M0 0 C0.99 0.33 1.98 0.66 3 1 C-0.50074982 5.17443363 -3.97950843 9.3145494 -8 13 C-8.66 13 -9.32 13 -10 13 C-8.62487859 10.03820004 -6.99630574 7.57856158 -5 5 C-4.34 4.01 -3.68 3.02 -3 2 C-2.01 1.67 -1.02 1.34 0 1 C0 0.67 0 0.34 0 0 Z " fill="#353535" transform="translate(20,6)"/>
<path d="M0 0 C0.86625 0.3403125 0.86625 0.3403125 1.75 0.6875 C0.76 1.1825 0.76 1.1825 -0.25 1.6875 C-0.559375 2.326875 -0.86875 2.96625 -1.1875 3.625 C-2.25 5.6875 -2.25 5.6875 -5.25 7.6875 C-5.58 6.0375 -5.91 4.3875 -6.25 2.6875 C-2.80384615 -0.38942308 -2.80384615 -0.38942308 0 0 Z " fill="#5F5E5F" transform="translate(6.25,181.3125)"/>
<path d="" fill="#2F2F2F" transform="translate(0,0)"/>
<path d="" fill="#333333" transform="translate(0,0)"/>
<path d="" fill="#1C1C1C" transform="translate(0,0)"/>
<path d="" fill="#1F1F1F" transform="translate(0,0)"/>
<path d="M0 0 C0.66 0 1.32 0 2 0 C1.67 0.66 1.34 1.32 1 2 C0.67 1.34 0.34 0.68 0 0 Z " fill="#151515" transform="translate(282,12)"/>
<path d="M0 0 C2 1 2 1 2 1 Z " fill="#1A1A1A" transform="translate(265,265)"/>
<path d="M0 0 C2 1 2 1 2 1 Z " fill="#101010" transform="translate(267,264)"/>
<path d="M0 0 C2 1 2 1 2 1 Z " fill="#1E1E1E" transform="translate(27,264)"/>
<path d="" fill="#191919" transform="translate(0,0)"/>
<path d="" fill="#242424" transform="translate(0,0)"/>
<path d="M0 0 C2 1 2 1 2 1 Z " fill="#3F3F3F" transform="translate(321,242)"/>
<path d="" fill="#151515" transform="translate(0,0)"/>
<path d="" fill="#272727" transform="translate(0,0)"/>
<path d="" fill="#1A1A1A" transform="translate(0,0)"/>
<path d="" fill="#282828" transform="translate(0,0)"/>
<path d="" fill="#343434" transform="translate(0,0)"/>
<path d="" fill="#383838" transform="translate(0,0)"/>
<path d="M0 0 C2 1 2 1 2 1 Z " fill="#303030" transform="translate(351,211)"/>
<path d="M0 0 C2 1 2 1 2 1 Z " fill="#434343" transform="translate(331,201)"/>
<path d="M0 0 C2 1 2 1 2 1 Z " fill="#626262" transform="translate(289,180)"/>
<path d="M0 0 C2 1 2 1 2 1 Z " fill="#464646" transform="translate(15,176)"/>
<path d="M0 0 C2 1 2 1 2 1 Z " fill="#4B4B4B" transform="translate(25,171)"/>
<path d="M0 0 C2 1 2 1 2 1 Z " fill="#5E5E5E" transform="translate(45,161)"/>
<path d="M0 0 C2 1 2 1 2 1 Z " fill="#3F3F3F" transform="translate(236,154)"/>
<path d="M0 0 C2 1 2 1 2 1 Z " fill="#585858" transform="translate(226,149)"/>
<path d="M0 0 C2 1 2 1 2 1 Z " fill="#707070" transform="translate(206,139)"/>
<path d="M0 0 C2 1 2 1 2 1 Z " fill="#898989" transform="translate(198,135)"/>
<path d="M0 0 C2 1 2 1 2 1 Z " fill="#6A6A6A" transform="translate(196,134)"/>
<path d="M0 0 C2 1 2 1 2 1 Z " fill="#242424" transform="translate(86,125)"/>
<path d="M0 0 C2 1 2 1 2 1 Z " fill="#101010" transform="translate(214,123)"/>
<path d="M0 0 C2 1 2 1 2 1 Z " fill="#0D0D0D" transform="translate(224,118)"/>
<path d="M0 0 C2 1 2 1 2 1 Z " fill="#101010" transform="translate(234,113)"/>
<path d="M0 0 C2 1 2 1 2 1 Z " fill="#0E0E0E" transform="translate(244,108)"/>
<path d="M0 0 C2 1 2 1 2 1 Z " fill="#0E0E0E" transform="translate(254,103)"/>
<path d="" fill="#161616" transform="translate(0,0)"/>
<path d="" fill="#232323" transform="translate(0,0)"/>
<path d="" fill="#141414" transform="translate(0,0)"/>
<path d="" fill="#0E0E0E" transform="translate(0,0)"/>
<path d="" fill="#1B1B1B" transform="translate(0,0)"/>
<path d="" fill="#0C0C0C" transform="translate(0,0)"/>
<path d="M0 0 C2 1 2 1 2 1 Z " fill="#373737" transform="translate(321,24)"/>
<path d="" fill="#1D1D1D" transform="translate(0,0)"/>
<path d="" fill="#131313" transform="translate(0,0)"/>
<path d="" fill="#3C3C3C" transform="translate(0,0)"/>
<path d="" fill="#373737" transform="translate(0,0)"/>
<path d="M0 0 C2 1 2 1 2 1 Z " fill="#232323" transform="translate(27,2)"/>
<path d="M0 0 C2 1 2 1 2 1 Z " fill="#222222" transform="translate(265,1)"/>
<path d="M0 0 C2 1 2 1 2 1 Z " fill="#232323" transform="translate(29,1)"/>
<path d="" fill="#2A2A2A" transform="translate(0,0)"/>
<path d="" fill="#282828" transform="translate(0,0)"/>
<path d="" fill="#282828" transform="translate(0,0)"/>
<path d="" fill="#131313" transform="translate(0,0)"/>
<path d="" fill="#454545" transform="translate(0,0)"/>
<path d="" fill="#141414" transform="translate(0,0)"/>
<path d="" fill="#383838" transform="translate(0,0)"/>
<path d="" fill="#1B1B1B" transform="translate(0,0)"/>
<path d="" fill="#393939" transform="translate(0,0)"/>
<path d="" fill="#1A1A1A" transform="translate(0,0)"/>
<path d="" fill="#424242" transform="translate(0,0)"/>
<path d="" fill="#101010" transform="translate(0,0)"/>
<path d="" fill="#4D4D4D" transform="translate(0,0)"/>
<path d="" fill="#0E0E0E" transform="translate(0,0)"/>
<path d="" fill="#313131" transform="translate(0,0)"/>
<path d="" fill="#292929" transform="translate(0,0)"/>
<path d="" fill="#000000" transform="translate(0,0)"/>
<path d="" fill="#575757" transform="translate(0,0)"/>
<path d="" fill="#343434" transform="translate(0,0)"/>
<path d="" fill="#363636" transform="translate(0,0)"/>
<path d="" fill="#5A5A5A" transform="translate(0,0)"/>
<path d="" fill="#777777" transform="translate(0,0)"/>
<path d="" fill="#656565" transform="translate(0,0)"/>
<path d="" fill="#000000" transform="translate(0,0)"/>
<path d="" fill="#3F3F3F" transform="translate(0,0)"/>
<path d="" fill="#252525" transform="translate(0,0)"/>
<path d="" fill="#000000" transform="translate(0,0)"/>
<path d="" fill="#444444" transform="translate(0,0)"/>
<path d="" fill="#161616" transform="translate(0,0)"/>
<path d="" fill="#242424" transform="translate(0,0)"/>
<path d="" fill="#050505" transform="translate(0,0)"/>
<path d="" fill="#3B3B3B" transform="translate(0,0)"/>
<path d="" fill="#111111" transform="translate(0,0)"/>
<path d="" fill="#424242" transform="translate(0,0)"/>
<path d="" fill="#111111" transform="translate(0,0)"/>
<path d="" fill="#363636" transform="translate(0,0)"/>
<path d="" fill="#292929" transform="translate(0,0)"/>
<path d="" fill="#303030" transform="translate(0,0)"/>
<path d="" fill="#111111" transform="translate(0,0)"/>
<path d="" fill="#373737" transform="translate(0,0)"/>
<path d="" fill="#111111" transform="translate(0,0)"/>
<path d="" fill="#262626" transform="translate(0,0)"/>
<path d="" fill="#1C1C1C" transform="translate(0,0)"/>
<path d="" fill="#3F3F3F" transform="translate(0,0)"/>
</svg>
