<?xml version="1.0" encoding="UTF-8"?>
<svg version="1.1" xmlns="http://www.w3.org/2000/svg" width="512" height="512">
<path d="M0 0 C168.96 0 337.92 0 512 0 C512 168.96 512 337.92 512 512 C343.04 512 174.08 512 0 512 C0 343.04 0 174.08 0 0 Z " fill="#000000" transform="translate(0,0)"/>
<path d="M0 0 C7.38069735 5.70480506 11.78780549 11.62608118 13.08203125 21.0859375 C13.37237673 27.78261542 12.01206726 32.55798725 8.703125 38.31640625 C8.22721924 39.15316895 8.22721924 39.15316895 7.74169922 40.00683594 C-14.94784082 79.40140795 -51.39466144 109.32831607 -93.23828125 126.46679688 C-95.15524331 127.25795294 -97.05505879 128.09030766 -98.953125 128.92578125 C-112.17375803 134.40612913 -126.28245553 136.71017696 -140.296875 139.31640625 C-141.2775293 139.51580811 -142.25818359 139.71520996 -143.26855469 139.9206543 C-151.85130502 141.5585559 -160.34537261 141.67182466 -169.046875 141.62890625 C-169.81388733 141.62708344 -170.58089966 141.62526062 -171.37115479 141.62338257 C-209.52263708 141.47141027 -252.47289757 133.30334283 -283.296875 109.31640625 C-285.34857312 106.83746664 -286.79950711 104.1590656 -288.296875 101.31640625 C-288.73 100.53265625 -289.163125 99.74890625 -289.609375 98.94140625 C-291.51299658 91.67303294 -290.77972225 83.97924446 -287.296875 77.31640625 C-282.09232655 69.89842915 -276.17779357 65.24858215 -267.296875 63.31640625 C-257.03772485 62.26955419 -247.98466322 67.91423988 -239.046875 72.25390625 C-230.60745861 76.3155826 -222.40892515 80.0055234 -213.296875 82.31640625 C-212.41032227 82.54199219 -211.52376953 82.76757812 -210.61035156 83 C-186.0286173 88.99752171 -160.85567592 89.75886271 -136.296875 83.31640625 C-135.04173096 82.99494629 -135.04173096 82.99494629 -133.76123047 82.66699219 C-106.67235883 75.57339401 -83.69612576 62.59878982 -63.296875 43.31640625 C-62.48605469 42.57003906 -61.67523438 41.82367188 -60.83984375 41.0546875 C-52.20234706 32.82526152 -45.0032261 23.24505629 -39.109375 12.87890625 C-35.58346885 6.79975771 -30.4083766 0.14042064 -23.5390625 -2.28125 C-15.84568173 -3.66176955 -6.8532305 -4.2758199 0 0 Z " fill="#FDFDFD" transform="translate(401.296875,258.68359375)"/>
<path d="M0 0 C0.886875 0.5775 1.77375 1.155 2.6875 1.75 C8.55498291 7.45890229 11.14407589 13.48745604 11.3125 21.625 C11.22831064 29.79978669 9.46197613 35.3948254 4.25 41.6875 C0.90555695 44.65662473 -2.3741824 46.09194562 -6.5625 47.6171875 C-7.24471619 47.86666641 -7.92693237 48.11614532 -8.62982178 48.3731842 C-20.11812356 52.53874651 -31.6933954 56.46680493 -43.25 60.4375 C-46.84859608 61.67592746 -50.44697552 62.91497808 -54.04504395 64.15493774 C-56.38573868 64.96065092 -58.72712166 65.76436768 -61.06921387 66.56600952 C-66.35695615 68.37926141 -71.63019825 70.21712592 -76.87304688 72.15673828 C-77.77464539 72.48625992 -78.6762439 72.81578156 -79.60516357 73.1552887 C-81.24482798 73.75729113 -82.88047631 74.37042531 -84.51055908 74.99790955 C-92.043359 77.74725572 -99.24893918 77.91615114 -106.796875 75.10546875 C-113.50654943 71.73873495 -117.79550461 66.65549043 -121 60 C-121.4125 59.236875 -121.825 58.47375 -122.25 57.6875 C-124.16209338 50.83583205 -123.50450582 44.50901163 -120.3359375 38.171875 C-115.25863687 29.91755 -109.46715959 25.62805174 -100.27734375 22.65234375 C-99.62791809 22.43959305 -98.97849243 22.22684235 -98.30938721 22.00764465 C-96.91363815 21.5506806 -95.51705335 21.09626277 -94.11972046 20.64416504 C-90.39279844 19.43728171 -86.67291922 18.20911496 -82.953125 16.98046875 C-82.19851486 16.73148834 -81.44390472 16.48250793 -80.66642761 16.22598267 C-73.4675745 13.84154374 -66.32261792 11.31923995 -59.1875 8.75 C-58.04974121 8.34072266 -56.91198242 7.93144531 -55.73974609 7.50976562 C-53.54013855 6.71758697 -51.34074883 5.92480317 -49.14160156 5.13134766 C-44.28774795 3.38338701 -39.42752743 1.6540907 -34.5625 -0.0625 C-33.75772217 -0.34963867 -32.95294434 -0.63677734 -32.1237793 -0.93261719 C-21.51450003 -4.66634505 -9.79327639 -6.7314167 0 0 Z " fill="#FDFDFD" transform="translate(369,150)"/>
<path d="M0 0 C6.01992066 4.22365401 10.70750559 8.86200882 13 16 C13.60044427 21.24629205 13.58840562 26.47030937 13.56640625 31.7421875 C13.57165068 33.27621841 13.57793015 34.8102461 13.58518982 36.3442688 C13.59556133 39.55014278 13.5910811 42.75557203 13.57641602 45.96142578 C13.55925107 50.04566745 13.58271049 54.12849913 13.61790562 58.21258354 C13.63999581 61.37848013 13.63841005 64.54404552 13.6301403 67.70999527 C13.62932676 69.21451487 13.63607461 70.71906027 13.65091133 72.22350693 C13.73409581 82.18533518 12.99208161 90.44032419 6.08692932 98.13058472 C0.4032223 103.72142426 -5.95072243 105.98387317 -13.8125 106.5625 C-21.0001534 106.30459668 -27.85132753 103.06206851 -32.98828125 98.06640625 C-34.54536003 96.08431837 -35.81494384 94.22540249 -37 92 C-37.50901855 91.10684082 -38.01803711 90.21368164 -38.54248047 89.29345703 C-41.08796528 83.25225681 -40.49388345 76.52323946 -40.50390625 70.08203125 C-40.51356536 68.61862403 -40.52365913 67.15521963 -40.53416443 65.69181824 C-40.5520742 62.62968241 -40.55769113 59.5677997 -40.5559082 56.50561523 C-40.55560432 52.61307435 -40.59647992 48.72218739 -40.64822483 44.83003712 C-40.68186232 41.8073354 -40.68765743 38.78502128 -40.68607903 35.76215172 C-40.68958095 34.3290203 -40.70263222 32.89587461 -40.72607613 31.46293068 C-40.87027426 21.73597623 -39.64901536 14.10913079 -34 6 C-24.61218433 -3.33388806 -12.09290147 -6.3212894 0 0 Z " fill="#FDFDFD" transform="translate(151,169)"/>
<path d="M0 0 C1.76953125 0.05859375 1.76953125 0.05859375 4 1 C5.69211633 2.99020936 7.18943148 4.9364473 8.6875 7.0625 C17.03902168 18.33074368 27.70417828 27.47628586 42 30 C46.64237345 30.37388736 51.28242062 30.50782967 55.9375 30.625 C57.82178711 30.68300781 57.82178711 30.68300781 59.74414062 30.7421875 C62.82928426 30.83603217 65.91442865 30.92172316 69 31 C68.30517578 35.73242188 68.30517578 35.73242188 65.55859375 38.140625 C64.52863281 38.83671875 63.49867188 39.5328125 62.4375 40.25 C50.46775547 48.77447346 42.08159323 60.40687822 39 75 C38.7735319 79.15022698 38.81089156 83.28277982 38.875 87.4375 C38.88402344 88.55060547 38.89304687 89.66371094 38.90234375 90.81054688 C38.9257776 93.54059023 38.958586 96.2701801 39 99 C37.35 99.33 35.7 99.66 34 100 C33.38253906 99.154375 32.76507813 98.30875 32.12890625 97.4375 C22.16900259 84.00431784 11.75252534 74.70459803 -5 71 C-9.37389979 70.53782267 -13.72937928 70.40194577 -18.125 70.3125 C-19.27226562 70.27833984 -20.41953125 70.24417969 -21.6015625 70.20898438 C-24.40094374 70.12733576 -27.20004449 70.05791908 -30 70 C-30.33 68.68 -30.66 67.36 -31 66 C-29.7315625 65.07380859 -29.7315625 65.07380859 -28.4375 64.12890625 C-17.37893798 55.93169614 -9.38749535 47.9681304 -4 35 C-3.72639648 34.36578125 -3.45279297 33.7315625 -3.17089844 33.078125 C-0.57683338 26.3963499 -0.6860082 20.0913011 -0.875 13 C-0.91812147 10.75007413 -0.95740639 8.50007026 -0.9921875 6.25 C-1.01651855 5.26515625 -1.04084961 4.2803125 -1.06591797 3.265625 C-1 1 -1 1 0 0 Z " fill="#FCFCFC" transform="translate(373,46)"/>
</svg>
